<?xml version="1.0" encoding="UTF-8" standalone="no"?>
<!-- Generator: Adobe Illustrator 19.1.0, SVG Export Plug-In . SVG Version: 6.00 Build 0)  -->

<svg
   xmlns:dc="http://purl.org/dc/elements/1.1/"
   xmlns:cc="http://creativecommons.org/ns#"
   xmlns:rdf="http://www.w3.org/1999/02/22-rdf-syntax-ns#"
   xmlns:svg="http://www.w3.org/2000/svg"
   xmlns="http://www.w3.org/2000/svg"
   xmlns:sodipodi="http://sodipodi.sourceforge.net/DTD/sodipodi-0.dtd"
   xmlns:inkscape="http://www.inkscape.org/namespaces/inkscape"
   version="1.1"
   id="DESIGNS"
   x="0px"
   y="0px"
   width="32px"
   height="32px"
   viewBox="0 0 32 32"
   style="enable-background:new 0 0 32 32;"
   xml:space="preserve"
   inkscape:version="0.48.4 r9939"
   sodipodi:docname="icon.svg"><defs
     id="defs25" /><sodipodi:namedview
     pagecolor="#ffffff"
     bordercolor="#666666"
     borderopacity="1"
     objecttolerance="10"
     gridtolerance="10"
     guidetolerance="10"
     inkscape:pageopacity="0"
     inkscape:pageshadow="2"
     inkscape:window-width="2560"
     inkscape:window-height="1416"
     id="namedview23"
     showgrid="false"
     inkscape:zoom="1"
     inkscape:cx="-95.662368"
     inkscape:cy="-3.9900761"
     inkscape:window-x="0"
     inkscape:window-y="24"
     inkscape:window-maximized="1"
     inkscape:current-layer="layer1" /><title
     property="dc:title"
     id="title3">to decide</title><desc
     property="dc:description"
     id="desc5">An icon for &quot;decide&quot; from the Feather series on to [icon]. Downloaded from http://www.toicon.com/icons/feather_decide by 94.126.39.250 on 2015-12-28. Licensed CC-BY, see http://toicon.com/license/ for details.</desc><metadata
     id="metadata9"><work
       rdf:about=""
       id="work11"><format
         id="format13">image/svg+xml</format><type
         rdf:resource="http://purl.org/dc/dcmitype/StillImage"
         id="type15" /><license
         rdf:resource="http://creativecommons.org/licenses/by/4.0/"
         id="license17" /><attributionname
         id="attributionname19">Shannon E Thomas</attributionname><attributionurl
         id="attributionurl21">http://www.toicon.com/icons/feather_decide</attributionurl></work><rdf:RDF><cc:Work
         rdf:about=""><dc:format>image/svg+xml</dc:format><dc:type
           rdf:resource="http://purl.org/dc/dcmitype/StillImage" /><dc:title>to decide</dc:title></cc:Work></rdf:RDF></metadata><g
     inkscape:groupmode="layer"
     id="layer1"
     inkscape:label="bg"
     style="display:inline"><rect
       style="fill:#ffff00;stroke:none"
       id="rect3004"
       width="256"
       height="256"
       x="0"
       y="-224"
       ry="77.501358"
       rx="0"
       inkscape:export-filename="/home/bjorn/Documents/Burobjorn/FLOSS/WordPress-plugins/where-am-i/github-repo/where-am-i/assets/icon-256x256.png"
       inkscape:export-xdpi="720"
       inkscape:export-ydpi="720" /><path
       inkscape:connector-curvature="0"
       class="feather_een"
       d="m 208.10126,-121.59026 -18.10584,-15.77267 C 185.67434,-141.1232 180.12884,-143.2 174.39374,-143.2 h -30.59508 v -7.86666 h 39.49792 c 8.72903,0 15.79916,-7.04067 15.79916,-15.73333 v -23.6 c 0,-8.69266 -7.07013,-15.73333 -15.79916,-15.73333 h -39.49792 v -7.86666 c 0,-4.3424 -3.539,-7.86667 -7.89957,-7.86667 h -15.79917 c -4.36057,0 -7.89958,3.52427 -7.89958,7.86667 v 7.86666 H 81.605264 c -5.735094,0 -11.280601,2.0768 -15.601672,5.83707 l -18.105841,15.77266 c -3.59431,3.13093 -3.59431,8.7084 0,11.83933 l 18.105841,15.77267 c 4.321071,3.76813 9.866578,5.84493 15.601672,5.84493 H 112.20034 V -143.2 H 72.702438 c -8.729038,0 -15.799164,7.04067 -15.799164,15.73334 v 23.59999 c 0,8.69267 7.070126,15.73333 15.799164,15.73333 H 112.20034 V 21.99998 c 0,4.3424 3.53901,7.86667 7.89958,7.86667 h 15.79917 c 4.36057,0 7.89957,-3.52427 7.89957,-7.86667 V -88.13334 h 30.59508 c 5.743,0 11.28851,-2.0768 15.60958,-5.83707 l 18.10584,-15.77266 c 3.58641,-3.1388 3.58641,-8.70839 -0.008,-11.84719 z m -88.00134,-92.40972 h 15.79917 v 7.86666 h -15.79917 v -7.86666 z m -48.898403,51.17266 -18.097942,-15.77267 18.097942,-15.77266 c 2.883347,-2.50947 6.580351,-3.894 10.403746,-3.894 H 183.29658 c 4.35266,0 7.89957,3.53213 7.89957,7.86666 v 23.6 c 0,4.33453 -3.54691,7.86667 -7.89957,7.86667 H 81.605264 c -3.823396,0 -7.5204,-1.38454 -10.403747,-3.894 z m 48.898403,11.76066 h 15.79917 V -143.2 h -15.79917 v -7.86666 z M 135.89909,21.99998 H 120.09992 V -88.13334 h 15.79917 V 21.99998 z M 184.7975,-99.894 C 181.91414,-97.38454 178.21714,-96 174.39374,-96 H 72.702438 c -4.35267,0 -7.899582,-3.53214 -7.899582,-7.86667 v -23.59999 c 0,-4.33454 3.546912,-7.86667 7.899582,-7.86667 H 174.39374 c 3.8313,0 7.5204,1.38453 10.40376,3.89399 l 18.10584,15.77268 -18.10584,15.77266 z m -25.19967,-15.77266 c 0,2.17119 -1.76951,3.93332 -3.94979,3.93332 h -55.29707 c -2.18029,0 -3.949794,-1.76213 -3.949794,-3.93332 0,-2.1712 1.769504,-3.93334 3.949794,-3.93334 h 55.29707 c 2.18028,0 3.94979,1.76214 3.94979,3.93334 z m 0,-62.93333 c 0,2.1712 -1.76951,3.93333 -3.94979,3.93333 h -55.29707 c -2.18029,0 -3.949794,-1.76213 -3.949794,-3.93333 0,-2.1712 1.769504,-3.93333 3.949794,-3.93333 h 55.29707 c 2.18028,0 3.94979,1.76213 3.94979,3.93333 z"
       style="fill:#0b1719;display:inline"
       id="path7"
       inkscape:export-filename="/home/bjorn/Documents/Burobjorn/FLOSS/WordPress-plugins/where-am-i/github-repo/where-am-i/assets/icon-256x256.png"
       inkscape:export-xdpi="720"
       inkscape:export-ydpi="720" /></g></svg>